<svg xmlns="http://www.w3.org/2000/svg" width="43.401" height="41.641" viewBox="0 0 43.401 41.641">
  <path id="Icon_simple-mail-dot-ru" data-name="Icon simple-mail-dot-ru" d="M20.95,9.375a12.438,12.438,0,0,1,8.724,3.761v.007a1.8,1.8,0,0,1,1.77-1.931h.262a1.964,1.964,0,0,1,1.94,2.006l.009,17.135a1.11,1.11,0,0,0,1.861.982c2.751-2.828,6.044-14.536-1.711-21.321A18.567,18.567,0,0,0,11.727,8.286,16.665,16.665,0,0,0,6.147,28.294c3.714,8.572,14.342,11.125,20.659,8.579C30,35.58,31.482,39.9,28.16,41.316c-5.02,2.141-18.992,1.924-25.517-9.382C-1.767,24.3-1.532,10.868,10.163,3.91A22.825,22.825,0,0,1,38.016,7.488c7.434,7.765,7,22.3-.251,27.96-3.284,2.568-8.167.067-8.134-3.673L29.6,30.549a12.2,12.2,0,0,1-8.648,3.6A12.655,12.655,0,0,1,8.628,21.825,12.729,12.729,0,0,1,20.95,9.375ZM29.2,21.352a7.808,7.808,0,0,0-8.109-7.684h-.163c-4.964,0-7.718,3.9-7.718,8.337,0,4.968,3.331,8.1,7.7,8.1a8.078,8.078,0,0,0,8.3-7.787Z" transform="translate(-0.001 -0.731)" fill="#d78c35"/>
</svg>
