<svg xmlns="http://www.w3.org/2000/svg" width="46" height="68" viewBox="0 0 46 68">
  <g id="Groupe_45" data-name="Groupe 45" transform="translate(-1596 -44)">
    <text id="menu" transform="translate(1599 107)" fill="#d78c35" font-size="15" font-family="Poppins-Medium, Poppins" font-weight="500"><tspan x="0" y="0">MENU</tspan></text>
    <g id="Groupe_37" data-name="Groupe 37">
      <circle id="Ellipse_1" data-name="Ellipse 1" cx="3.5" cy="3.5" r="3.5" transform="translate(1596 44)" fill="#f4e56b"/>
      <circle id="Ellipse_2" data-name="Ellipse 2" cx="3.5" cy="3.5" r="3.5" transform="translate(1609 44)" fill="#efd461"/>
      <circle id="Ellipse_3" data-name="Ellipse 3" cx="3.5" cy="3.5" r="3.5" transform="translate(1622 44)" fill="#e4b34d"/>
      <circle id="Ellipse_4" data-name="Ellipse 4" cx="3.5" cy="3.5" r="3.5" transform="translate(1635 44)" fill="#e0a846"/>
      <circle id="Ellipse_5" data-name="Ellipse 5" cx="3.5" cy="3.5" r="3.5" transform="translate(1596 57)" fill="#efd461"/>
      <circle id="Ellipse_6" data-name="Ellipse 6" cx="3.5" cy="3.5" r="3.5" transform="translate(1609 57)" fill="#e4b34d"/>
      <circle id="Ellipse_7" data-name="Ellipse 7" cx="3.5" cy="3.5" r="3.5" transform="translate(1622 57)" fill="#e0a846"/>
      <circle id="Ellipse_8" data-name="Ellipse 8" cx="3.5" cy="3.5" r="3.5" transform="translate(1635 57)" fill="#dd9e41"/>
      <circle id="Ellipse_9" data-name="Ellipse 9" cx="3.5" cy="3.5" r="3.5" transform="translate(1596 70)" fill="#e4b34d"/>
      <circle id="Ellipse_10" data-name="Ellipse 10" cx="3.5" cy="3.5" r="3.5" transform="translate(1609 70)" fill="#e0a846"/>
      <circle id="Ellipse_11" data-name="Ellipse 11" cx="3.5" cy="3.5" r="3.5" transform="translate(1622 70)" fill="#dd9e41"/>
      <circle id="Ellipse_12" data-name="Ellipse 12" cx="3.5" cy="3.5" r="3.5" transform="translate(1635 70)" fill="#d78c35"/>
      <circle id="Ellipse_13" data-name="Ellipse 13" cx="3.5" cy="3.5" r="3.5" transform="translate(1596 83)" fill="#e0a846"/>
      <circle id="Ellipse_14" data-name="Ellipse 14" cx="3.5" cy="3.5" r="3.5" transform="translate(1609 83)" fill="#dd9e41"/>
      <circle id="Ellipse_15" data-name="Ellipse 15" cx="3.5" cy="3.5" r="3.5" transform="translate(1622 83)" fill="#d78c35"/>
      <circle id="Ellipse_16" data-name="Ellipse 16" cx="3.5" cy="3.5" r="3.5" transform="translate(1635 83)" fill="#d78c35"/>
    </g>
  </g>
</svg>
