<svg xmlns="http://www.w3.org/2000/svg" width="52.861" height="52.954" viewBox="0 0 52.861 52.954">
  <path id="Icon_feather-phone-call" data-name="Icon feather-phone-call" d="M33.3,10.816a11.645,11.645,0,0,1,9.2,9.2M33.3,1.5A20.961,20.961,0,0,1,51.816,19.992M49.487,38.578v6.987a4.658,4.658,0,0,1-5.077,4.658,46.091,46.091,0,0,1-20.1-7.15A45.416,45.416,0,0,1,10.337,29.1,46.091,46.091,0,0,1,3.187,8.906,4.658,4.658,0,0,1,7.821,3.829h6.987a4.658,4.658,0,0,1,4.658,4.006,29.9,29.9,0,0,0,1.63,6.545,4.658,4.658,0,0,1-1.048,4.914l-2.958,2.958A37.264,37.264,0,0,0,31.065,36.225l2.958-2.958a4.658,4.658,0,0,1,4.914-1.048,29.9,29.9,0,0,0,6.545,1.63A4.658,4.658,0,0,1,49.487,38.578Z" transform="translate(-1.166 0.708)" fill="none" stroke="#d78c35" stroke-linecap="round" stroke-linejoin="round" stroke-width="4"/>
</svg>
