<svg xmlns="http://www.w3.org/2000/svg" width="86" height="91.226" viewBox="0 0 86 91.226">
  <path id="gear-solid" d="M100.424,29.69a4.037,4.037,0,0,1-1.141,4.384L91.567,41.1a33.967,33.967,0,0,1,0,9.053l7.716,7.021a4.037,4.037,0,0,1,1.141,4.384,44.175,44.175,0,0,1-2.816,6.113L96.77,69.11a45.347,45.347,0,0,1-3.938,5.56,4.036,4.036,0,0,1-4.366,1.212l-9.926-3.154A34.292,34.292,0,0,1,70.7,77.254L68.471,87.43A4.027,4.027,0,0,1,65.227,90.6a46.3,46.3,0,0,1-15.148,0,4.028,4.028,0,0,1-3.243-3.172L44.608,77.254a34.292,34.292,0,0,1-7.841-4.527L26.859,75.9a4.068,4.068,0,0,1-4.366-1.212,45.348,45.348,0,0,1-3.938-5.56l-.838-1.444A44.173,44.173,0,0,1,14.9,61.572a4.037,4.037,0,0,1,1.141-4.384l7.717-7.021a34.963,34.963,0,0,1-.3-4.544,34.482,34.482,0,0,1,.3-4.527l-7.717-7.021A4.037,4.037,0,0,1,14.9,29.69a44.173,44.173,0,0,1,2.816-6.113l.838-1.444a45.348,45.348,0,0,1,3.938-5.56,4.036,4.036,0,0,1,4.366-1.212l9.926,3.154a34.292,34.292,0,0,1,7.841-4.527L46.854,3.814A4.028,4.028,0,0,1,50.1.642,44.179,44.179,0,0,1,57.671,0a46.049,46.049,0,0,1,7.574.624A4.028,4.028,0,0,1,68.488,3.8l2.228,10.176A34.292,34.292,0,0,1,78.557,18.5l9.926-3.154a4.068,4.068,0,0,1,4.366,1.212,45.348,45.348,0,0,1,3.938,5.56l.838,1.444a44.174,44.174,0,0,1,2.816,6.113ZM57.671,59.879A14.257,14.257,0,1,0,43.414,45.622,14.253,14.253,0,0,0,57.671,59.879Z" transform="translate(-14.662)" fill="#d78c35" opacity="0.9"/>
</svg>
