<svg xmlns="http://www.w3.org/2000/svg" width="61.725" height="89.784" viewBox="0 0 61.725 89.784">
  <path id="Icon_awesome-lightbulb" data-name="Icon awesome-lightbulb" d="M16.845,79.673a5.614,5.614,0,0,0,.94,3.1l3,4.5a5.61,5.61,0,0,0,4.671,2.5H36.274a5.61,5.61,0,0,0,4.671-2.5l3-4.5a5.609,5.609,0,0,0,.94-3.1l.007-6.725H16.836l.009,6.725ZM0,30.863a30.69,30.69,0,0,0,7.638,20.3c2.9,3.305,7.428,10.211,9.155,16.036.007.046.012.091.019.137h28.1c.007-.046.012-.089.019-.137,1.727-5.825,6.258-12.731,9.155-16.036A30.856,30.856,0,1,0,0,30.863ZM30.863,16.834A14.045,14.045,0,0,0,16.834,30.863a2.806,2.806,0,0,1-5.611,0,19.661,19.661,0,0,1,19.64-19.64,2.806,2.806,0,0,1,0,5.611Z" fill="#d78c35" opacity="0.9"/>
</svg>
