<svg xmlns="http://www.w3.org/2000/svg" width="79.364" height="79.364" viewBox="0 0 79.364 79.364">
  <path id="Icon_awesome-pen-nib" data-name="Icon awesome-pen-nib" d="M21.174,21.514a9.921,9.921,0,0,0-6.713,6.41L0,71.3l2.277,2.277L25.545,50.313a7.511,7.511,0,1,1,3.506,3.506L5.783,77.087,8.06,79.364,51.441,64.9a9.921,9.921,0,0,0,6.41-6.713l6.633-23.468L44.642,14.881ZM77.184,11.5,67.867,2.18a7.444,7.444,0,0,0-10.527,0l-8.766,8.766L68.419,30.789l8.766-8.766a7.444,7.444,0,0,0,0-10.527Z" transform="translate(0 0)" fill="#d78c35" opacity="0.9"/>
</svg>
